<svg width="82" height="81" viewBox="0 0 82 81" fill="none" xmlns="http://www.w3.org/2000/svg">
<path d="M34.3433 49.1899C36.2069 50.3499 38.4065 51.022 40.7632 51.022C43.0605 51.0219 45.2084 50.3835 47.0415 49.2769L56.9507 66.4399C52.0001 69.2982 46.3839 70.8032 40.6675 70.8032C34.9512 70.8032 29.3358 69.2981 24.3853 66.4399L34.3433 49.1899ZM40.7632 30.5288C45.361 30.529 49.0884 34.2562 49.0884 38.854C49.0883 43.4517 45.3609 47.179 40.7632 47.1792C36.1653 47.1792 32.4381 43.4519 32.438 38.854C32.438 34.2561 36.1652 30.5288 40.7632 30.5288ZM34.8745 28.2046C31.2991 30.1858 28.8264 33.9141 28.6108 38.2378H8.10205C8.10212 32.5215 9.60718 26.906 12.4653 21.9556C15.3236 17.005 19.4347 12.8939 24.3853 10.0356L34.8745 28.2046ZM56.9507 10.0356C61.9012 12.8939 66.0124 17.0051 68.8706 21.9556C71.7286 26.906 73.2328 32.5216 73.2329 38.2378H52.9146C52.696 33.8557 50.1592 30.0854 46.5054 28.1255L56.9507 10.0356Z" fill="black"/>
</svg>
